M48
INCH
T01C0.019
T02C0.0276
T03C0.028
T04C0.0354
T05C0.038
T06C0.0394
T07C0.0591
%
T01
X+017687Y+031187
X+020687Y+031937
X+021690Y+031117
X+015437Y+014137
X+014087Y+012762
X+013662Y+012337
X+014687Y+008437
T02
X+005937Y+017437
X+005937Y+017937
X+005937Y+018437
X+007937Y+018437
X+007937Y+017937
X+007937Y+018937
X+010437Y+018437
X+010437Y+017937
X+010437Y+017437
X+012437Y+017937
X+012437Y+018437
X+012437Y+018937
X+015437Y+018437
X+015437Y+017937
X+015437Y+017437
X+017437Y+017937
X+017437Y+018437
X+017437Y+018937
X+019937Y+018437
X+019937Y+017937
X+019937Y+017437
X+021937Y+017937
X+021937Y+018437
X+021937Y+018937
X+018187Y+009437
X+018187Y+008937
X+018187Y+008437
T03
X+012247Y+030502
X+012247Y+029502
X+012247Y+027502
X+012247Y+026502
X+012247Y+024502
X+012247Y+023502
X+012247Y+021502
X+012247Y+020502
X+008747Y+020502
X+008747Y+021502
X+008747Y+023502
X+008747Y+024502
X+008747Y+026502
X+008747Y+027502
X+008747Y+029502
X+008747Y+030502
X+015747Y+030502
X+015747Y+029502
X+015747Y+027502
X+015747Y+026502
X+015747Y+024502
X+015747Y+023502
X+015747Y+021502
X+015747Y+020502
X+019247Y+020502
X+019247Y+021502
X+019247Y+023502
X+019247Y+024502
X+019247Y+026502
X+019247Y+027502
X+019247Y+029502
X+019247Y+030502
T04
X+021937Y+010437
X+019937Y+010437
X+019937Y+008937
X+017937Y+010937
X+013961Y+010937
X+019937Y+004961
X+022937Y+020937
X+022937Y+021937
X+022937Y+022937
X+022937Y+023937
X+022937Y+024937
X+022937Y+025937
X+022937Y+026937
X+022937Y+027937
X+022937Y+028937
X+022937Y+029937
X+006437Y+032437
X+005437Y+032437
X+004937Y+029937
X+004937Y+028937
X+004937Y+027937
X+004937Y+026937
X+004937Y+025937
X+004937Y+024937
X+004937Y+023937
X+004937Y+022937
X+004937Y+021937
X+004937Y+020937
T05
X+005937Y+011937
X+006187Y+010937
X+007687Y+010687
X+007937Y+012437
X+010437Y+011937
X+011687Y+010687
X+012437Y+012437
X+015437Y+011937
X+017437Y+012437
X+019937Y+011937
X+021937Y+012437
X+021937Y+016437
X+019937Y+015937
X+017437Y+016437
X+015437Y+015937
X+012437Y+016437
X+010437Y+015937
X+007937Y+016437
X+005937Y+015937
X+006187Y+006937
T06
X+015687Y+032937
X+015687Y+034906
X+012187Y+034906
X+012187Y+032937
X+008687Y+032969
X+008687Y+034937
X+019187Y+034904
X+019187Y+032935
T07
X+018437Y+005937
X+016587Y+007118
X+016587Y+004756
T00
M30
