G04 DipTrace 2.3.0.3*
%INTopSilk.gbr*%
%MOIN*%
%ADD10C,0.0098*%
%ADD73C,0.0077*%
%ADD74C,0.0124*%
%FSLAX44Y44*%
G04*
G70*
G90*
G75*
G01*
%LNTopSilk*%
%LPD*%
X8625Y7063D2*
D10*
G02X8625Y7063I2062J0D01*
G01*
X13187Y5001D2*
Y9750D1*
X8062Y4813D2*
G03X8437Y4438I219J-156D01*
G01*
X13312Y4813D2*
G02X12875Y4438I-219J-188D01*
G01*
G03X8437Y4438I-2219J-9717D01*
G01*
X13187Y9750D2*
X8187D1*
Y5001D1*
Y7750D2*
X7563D1*
Y6125D1*
X8187D1*
X13187Y7750D2*
X13688D1*
X13750D2*
Y6125D1*
X13187D2*
X13750D1*
X8187Y5001D2*
X8062Y4751D1*
X13187Y5001D2*
X13374Y4688D1*
X19738Y11037D2*
X22136D1*
X19738Y9837D2*
X22136D1*
G03X22136Y11037I1J600D01*
G01*
X19738D2*
G03X19738Y9837I-1J-600D01*
G01*
X7236Y32555D2*
Y32319D1*
X7354Y32437D2*
X7118D1*
X4937D2*
G02X4937Y32437I1000J0D01*
G01*
X12996Y29002D2*
X11498D1*
X12999Y29004D2*
G03X11495Y29004I-752J998D01*
G01*
X9496Y26002D2*
X7998D1*
X9499Y26004D2*
G03X7995Y26004I-752J998D01*
G01*
X12996Y23002D2*
X11498D1*
X12999Y23004D2*
G03X11495Y23004I-752J998D01*
G01*
X9496Y20002D2*
X7998D1*
X9499Y20004D2*
G03X7995Y20004I-752J998D01*
G01*
X9496Y29002D2*
X7998D1*
X9499Y29004D2*
G03X7995Y29004I-752J998D01*
G01*
X12996Y26002D2*
X11498D1*
X12999Y26004D2*
G03X11495Y26004I-752J998D01*
G01*
X9496Y23002D2*
X7998D1*
X9499Y23004D2*
G03X7995Y23004I-752J998D01*
G01*
X12996Y20002D2*
X11498D1*
X12999Y20004D2*
G03X11495Y20004I-752J998D01*
G01*
X19996Y29002D2*
X18498D1*
X19999Y29004D2*
G03X18495Y29004I-752J998D01*
G01*
X16496Y26002D2*
X14998D1*
X16499Y26004D2*
G03X14995Y26004I-752J998D01*
G01*
X19996Y23002D2*
X18498D1*
X19999Y23004D2*
G03X18495Y23004I-752J998D01*
G01*
X16496Y20002D2*
X14998D1*
X16499Y20004D2*
G03X14995Y20004I-752J998D01*
G01*
X16496Y29002D2*
X14998D1*
X16499Y29004D2*
G03X14995Y29004I-752J998D01*
G01*
X19996Y26002D2*
X18498D1*
X19999Y26004D2*
G03X18495Y26004I-752J998D01*
G01*
X16496Y23002D2*
X14998D1*
X16499Y23004D2*
G03X14995Y23004I-752J998D01*
G01*
X19996Y20002D2*
X18498D1*
X19999Y20004D2*
G03X18495Y20004I-752J998D01*
G01*
X19484Y7954D2*
X20390D1*
Y5944D1*
X19484Y7620D2*
X20390D1*
X19484Y5944D2*
X20390D1*
X19484Y7954D2*
Y5944D1*
X16813Y31681D2*
Y32193D1*
X16954Y11390D2*
Y10484D1*
X14944D1*
X16620Y11390D2*
Y10484D1*
X14944Y11390D2*
Y10484D1*
X16954Y11390D2*
X14944D1*
X23437Y30437D2*
X22437D1*
X23437Y20437D2*
Y30437D1*
Y20437D2*
X22437D1*
Y21187D1*
Y30437D1*
X5437D2*
X4437D1*
X5437Y20437D2*
Y30437D1*
Y20437D2*
X4437D1*
Y21187D1*
Y30437D1*
X17295Y7394D2*
X18358D1*
Y6567D1*
Y5307D2*
Y4165D1*
X14815D2*
Y7394D1*
X15878D1*
X6468Y17181D2*
G02X6468Y18693I-666J756D01*
G01*
Y17181D1*
X8468Y17681D2*
G02X8468Y19193I-666J756D01*
G01*
Y17681D1*
X10968Y17181D2*
G02X10968Y18693I-666J756D01*
G01*
Y17181D1*
X12968Y17681D2*
G02X12968Y19193I-666J756D01*
G01*
Y17681D1*
X15968Y17181D2*
G02X15968Y18693I-666J756D01*
G01*
Y17181D1*
X17968Y17681D2*
G02X17968Y19193I-666J756D01*
G01*
Y17681D1*
X20468Y17181D2*
G02X20468Y18693I-666J756D01*
G01*
Y17181D1*
X22468Y17681D2*
G02X22468Y19193I-666J756D01*
G01*
Y17681D1*
X6437Y14935D2*
Y12939D1*
X5437D2*
X6437D1*
X5437Y14935D2*
Y12939D1*
Y14935D2*
X6437D1*
X7437Y13439D2*
Y15435D1*
X8437D2*
X7437D1*
X8437Y13439D2*
Y15435D1*
Y13439D2*
X7437D1*
X10937Y14935D2*
Y12939D1*
X9937D2*
X10937D1*
X9937Y14935D2*
Y12939D1*
Y14935D2*
X10937D1*
X11937Y13439D2*
Y15435D1*
X12937D2*
X11937D1*
X12937Y13439D2*
Y15435D1*
Y13439D2*
X11937D1*
X15937Y14935D2*
Y12939D1*
X14937D2*
X15937D1*
X14937Y14935D2*
Y12939D1*
Y14935D2*
X15937D1*
X16937Y13439D2*
Y15435D1*
X17937D2*
X16937D1*
X17937Y13439D2*
Y15435D1*
Y13439D2*
X16937D1*
X20437Y14935D2*
Y12939D1*
X19437D2*
X20437D1*
X19437Y14935D2*
Y12939D1*
Y14935D2*
X20437D1*
X21437Y13439D2*
Y15435D1*
X22437D2*
X21437D1*
X22437Y13439D2*
Y15435D1*
Y13439D2*
X21437D1*
X5687Y7939D2*
Y9935D1*
X6687D2*
X5687D1*
X6687Y7939D2*
Y9935D1*
Y7939D2*
X5687D1*
X10685Y10187D2*
X8689D1*
Y11187D2*
Y10187D1*
X10685Y11187D2*
X8689D1*
X10685D2*
Y10187D1*
X16868Y32740D2*
X14506D1*
Y35102D1*
X16868D1*
Y32740D1*
X13368D2*
X11006D1*
Y35102D1*
X13368D1*
Y32740D1*
X7506Y35134D2*
X9868D1*
Y32772D1*
X7506D1*
Y35134D1*
X18006Y35101D2*
X20368D1*
Y32738D1*
X18006D1*
Y35101D1*
X18718Y8181D2*
G02X18718Y9693I-666J756D01*
G01*
Y8181D1*
X7571Y36209D2*
D74*
X7517Y36171D1*
X7464Y36095D1*
X7437Y35980D1*
Y35904D1*
X7464Y35789D1*
X7517Y35712D1*
X7571Y35674D1*
X7651D1*
X7705Y35712D1*
X7758Y35789D1*
X7786Y35904D1*
Y35980D1*
X7758Y36095D1*
X7705Y36171D1*
X7651Y36209D1*
X7571D1*
X7958D2*
Y35674D1*
Y36056D2*
X8039Y36171D1*
X8093Y36209D1*
X8173D1*
X8226Y36171D1*
X8253Y36056D1*
Y35674D1*
X8426D2*
X8801Y36477D1*
X9108Y36209D2*
X9055Y36171D1*
X9001Y36095D1*
X8974Y35980D1*
Y35904D1*
X9001Y35789D1*
X9055Y35712D1*
X9108Y35674D1*
X9188D1*
X9242Y35712D1*
X9295Y35789D1*
X9323Y35904D1*
Y35980D1*
X9295Y36095D1*
X9242Y36171D1*
X9188Y36209D1*
X9108D1*
X9710Y36477D2*
X9656D1*
X9603Y36439D1*
X9576Y36324D1*
Y35674D1*
X9495Y36209D2*
X9683D1*
X10097Y36477D2*
X10044D1*
X9990Y36439D1*
X9963Y36324D1*
Y35674D1*
X9883Y36209D2*
X10070D1*
X10937Y36477D2*
Y35674D1*
Y36095D2*
X10991Y36171D1*
X11044Y36209D1*
X11125D1*
X11178Y36171D1*
X11232Y36095D1*
X11258Y35980D1*
Y35904D1*
X11232Y35789D1*
X11178Y35712D1*
X11125Y35674D1*
X11044D1*
X10991Y35712D1*
X10937Y35789D1*
X11431Y36209D2*
Y35674D1*
Y35980D2*
X11458Y36095D1*
X11512Y36171D1*
X11566Y36209D1*
X11646D1*
X11819Y36477D2*
X11846Y36439D1*
X11873Y36477D1*
X11846Y36516D1*
X11819Y36477D1*
X11846Y36209D2*
Y35674D1*
X12367Y36171D2*
Y35559D1*
X12340Y35445D1*
X12314Y35406D1*
X12260Y35368D1*
X12179D1*
X12126Y35406D1*
X12367Y36056D2*
X12314Y36133D1*
X12260Y36171D1*
X12179D1*
X12126Y36133D1*
X12072Y36056D1*
X12046Y35942D1*
Y35865D1*
X12072Y35751D1*
X12126Y35674D1*
X12179Y35636D1*
X12260D1*
X12314Y35674D1*
X12367Y35751D1*
X12540Y36477D2*
Y35674D1*
Y36056D2*
X12620Y36171D1*
X12674Y36209D1*
X12755D1*
X12808Y36171D1*
X12835Y36056D1*
Y35674D1*
X13088Y36477D2*
Y35827D1*
X13115Y35712D1*
X13168Y35674D1*
X13222D1*
X13007Y36209D2*
X13195D1*
X18508D2*
Y35674D1*
Y36095D2*
X18455Y36171D1*
X18401Y36209D1*
X18321D1*
X18267Y36171D1*
X18214Y36095D1*
X18187Y35980D1*
Y35904D1*
X18214Y35789D1*
X18267Y35712D1*
X18321Y35674D1*
X18401D1*
X18455Y35712D1*
X18508Y35789D1*
X18681Y36477D2*
Y35674D1*
X19175Y36209D2*
Y35674D1*
Y36095D2*
X19122Y36171D1*
X19068Y36209D1*
X18988D1*
X18935Y36171D1*
X18881Y36095D1*
X18854Y35980D1*
Y35904D1*
X18881Y35789D1*
X18935Y35712D1*
X18988Y35674D1*
X19068D1*
X19122Y35712D1*
X19175Y35789D1*
X19348Y36209D2*
Y35674D1*
Y35980D2*
X19376Y36095D1*
X19429Y36171D1*
X19483Y36209D1*
X19563D1*
X19736D2*
Y35674D1*
Y36056D2*
X19817Y36171D1*
X19870Y36209D1*
X19950D1*
X20004Y36171D1*
X20031Y36056D1*
Y35674D1*
Y36056D2*
X20111Y36171D1*
X20165Y36209D1*
X20245D1*
X20299Y36171D1*
X20326Y36056D1*
Y35674D1*
X15009Y36095D2*
X14955Y36171D1*
X14901Y36209D1*
X14821D1*
X14767Y36171D1*
X14714Y36095D1*
X14687Y35980D1*
Y35904D1*
X14714Y35789D1*
X14767Y35712D1*
X14821Y35674D1*
X14901D1*
X14955Y35712D1*
X15009Y35789D1*
X15316Y36209D2*
X15262Y36171D1*
X15208Y36095D1*
X15182Y35980D1*
Y35904D1*
X15208Y35789D1*
X15262Y35712D1*
X15316Y35674D1*
X15396D1*
X15450Y35712D1*
X15503Y35789D1*
X15530Y35904D1*
Y35980D1*
X15503Y36095D1*
X15450Y36171D1*
X15396Y36209D1*
X15316D1*
X15703Y36477D2*
Y35674D1*
X16010Y36209D2*
X15957Y36171D1*
X15903Y36095D1*
X15876Y35980D1*
Y35904D1*
X15903Y35789D1*
X15957Y35712D1*
X16010Y35674D1*
X16090D1*
X16144Y35712D1*
X16197Y35789D1*
X16225Y35904D1*
Y35980D1*
X16197Y36095D1*
X16144Y36171D1*
X16090Y36209D1*
X16010D1*
X16398D2*
Y35674D1*
Y35980D2*
X16425Y36095D1*
X16478Y36171D1*
X16532Y36209D1*
X16612D1*
X5664Y13840D2*
D73*
X5814D1*
X5865Y13864D1*
X5882Y13888D1*
X5898Y13935D1*
Y13984D1*
X5882Y14031D1*
X5865Y14055D1*
X5814Y14079D1*
X5664D1*
Y13577D1*
X5781Y13840D2*
X5898Y13577D1*
X6006Y13983D2*
X6040Y14007D1*
X6090Y14079D1*
Y13577D1*
X7664Y14590D2*
X7814D1*
X7865Y14614D1*
X7882Y14638D1*
X7898Y14685D1*
Y14734D1*
X7882Y14781D1*
X7865Y14805D1*
X7814Y14829D1*
X7664D1*
Y14327D1*
X7781Y14590D2*
X7898Y14327D1*
X8023Y14709D2*
Y14733D1*
X8040Y14781D1*
X8057Y14805D1*
X8090Y14829D1*
X8157D1*
X8191Y14805D1*
X8207Y14781D1*
X8224Y14733D1*
Y14685D1*
X8207Y14637D1*
X8174Y14566D1*
X8006Y14327D1*
X8241D1*
X4514Y19329D2*
X4481Y19306D1*
X4448Y19258D1*
X4431Y19210D1*
X4414Y19138D1*
Y19019D1*
X4431Y18947D1*
X4448Y18899D1*
X4481Y18851D1*
X4514Y18827D1*
X4581D1*
X4615Y18851D1*
X4648Y18899D1*
X4665Y18947D1*
X4682Y19019D1*
Y19138D1*
X4665Y19210D1*
X4648Y19258D1*
X4615Y19306D1*
X4581Y19329D1*
X4514D1*
X4565Y18923D2*
X4665Y18779D1*
X4790Y19233D2*
X4824Y19257D1*
X4874Y19329D1*
Y18827D1*
X8264Y17329D2*
X8231Y17306D1*
X8198Y17258D1*
X8181Y17210D1*
X8164Y17138D1*
Y17019D1*
X8181Y16947D1*
X8198Y16899D1*
X8231Y16851D1*
X8264Y16827D1*
X8331D1*
X8365Y16851D1*
X8398Y16899D1*
X8415Y16947D1*
X8432Y17019D1*
Y17138D1*
X8415Y17210D1*
X8398Y17258D1*
X8365Y17306D1*
X8331Y17329D1*
X8264D1*
X8315Y16923D2*
X8415Y16779D1*
X8557Y17209D2*
Y17233D1*
X8574Y17281D1*
X8590Y17305D1*
X8624Y17329D1*
X8691D1*
X8724Y17305D1*
X8741Y17281D1*
X8758Y17233D1*
Y17185D1*
X8741Y17137D1*
X8708Y17066D1*
X8540Y16827D1*
X8774D1*
X9014Y19329D2*
X8981Y19306D1*
X8948Y19258D1*
X8931Y19210D1*
X8914Y19138D1*
Y19019D1*
X8931Y18947D1*
X8948Y18899D1*
X8981Y18851D1*
X9014Y18827D1*
X9081D1*
X9115Y18851D1*
X9148Y18899D1*
X9165Y18947D1*
X9182Y19019D1*
Y19138D1*
X9165Y19210D1*
X9148Y19258D1*
X9115Y19306D1*
X9081Y19329D1*
X9014D1*
X9065Y18923D2*
X9165Y18779D1*
X9324Y19329D2*
X9507D1*
X9407Y19137D1*
X9458D1*
X9491Y19114D1*
X9507Y19090D1*
X9524Y19018D1*
Y18970D1*
X9507Y18899D1*
X9474Y18851D1*
X9424Y18827D1*
X9374D1*
X9324Y18851D1*
X9307Y18875D1*
X9290Y18922D1*
X12764Y17329D2*
X12731Y17306D1*
X12698Y17258D1*
X12681Y17210D1*
X12664Y17138D1*
Y17019D1*
X12681Y16947D1*
X12698Y16899D1*
X12731Y16851D1*
X12764Y16827D1*
X12831D1*
X12865Y16851D1*
X12898Y16899D1*
X12915Y16947D1*
X12932Y17019D1*
Y17138D1*
X12915Y17210D1*
X12898Y17258D1*
X12865Y17306D1*
X12831Y17329D1*
X12764D1*
X12815Y16923D2*
X12915Y16779D1*
X13208Y16827D2*
Y17329D1*
X13040Y16994D1*
X13291D1*
X14014Y19329D2*
X13981Y19306D1*
X13948Y19258D1*
X13931Y19210D1*
X13914Y19138D1*
Y19019D1*
X13931Y18947D1*
X13948Y18899D1*
X13981Y18851D1*
X14014Y18827D1*
X14081D1*
X14115Y18851D1*
X14148Y18899D1*
X14165Y18947D1*
X14182Y19019D1*
Y19138D1*
X14165Y19210D1*
X14148Y19258D1*
X14115Y19306D1*
X14081Y19329D1*
X14014D1*
X14065Y18923D2*
X14165Y18779D1*
X14491Y19329D2*
X14324D1*
X14307Y19114D1*
X14324Y19137D1*
X14374Y19162D1*
X14424D1*
X14474Y19137D1*
X14508Y19090D1*
X14524Y19018D1*
Y18970D1*
X14508Y18899D1*
X14474Y18851D1*
X14424Y18827D1*
X14374D1*
X14324Y18851D1*
X14307Y18875D1*
X14290Y18922D1*
X17764Y17329D2*
X17731Y17306D1*
X17698Y17258D1*
X17681Y17210D1*
X17664Y17138D1*
Y17019D1*
X17681Y16947D1*
X17698Y16899D1*
X17731Y16851D1*
X17764Y16827D1*
X17831D1*
X17865Y16851D1*
X17898Y16899D1*
X17915Y16947D1*
X17932Y17019D1*
Y17138D1*
X17915Y17210D1*
X17898Y17258D1*
X17865Y17306D1*
X17831Y17329D1*
X17764D1*
X17815Y16923D2*
X17915Y16779D1*
X18241Y17257D2*
X18224Y17305D1*
X18174Y17329D1*
X18141D1*
X18090Y17305D1*
X18057Y17233D1*
X18040Y17114D1*
Y16994D1*
X18057Y16899D1*
X18090Y16851D1*
X18141Y16827D1*
X18157D1*
X18207Y16851D1*
X18241Y16899D1*
X18257Y16970D1*
Y16994D1*
X18241Y17066D1*
X18207Y17114D1*
X18157Y17137D1*
X18141D1*
X18090Y17114D1*
X18057Y17066D1*
X18040Y16994D1*
X18764Y19329D2*
X18731Y19306D1*
X18698Y19258D1*
X18681Y19210D1*
X18664Y19138D1*
Y19019D1*
X18681Y18947D1*
X18698Y18899D1*
X18731Y18851D1*
X18764Y18827D1*
X18831D1*
X18865Y18851D1*
X18898Y18899D1*
X18915Y18947D1*
X18932Y19019D1*
Y19138D1*
X18915Y19210D1*
X18898Y19258D1*
X18865Y19306D1*
X18831Y19329D1*
X18764D1*
X18815Y18923D2*
X18915Y18779D1*
X19107Y18827D2*
X19274Y19329D1*
X19040D1*
X22514Y17329D2*
X22481Y17306D1*
X22448Y17258D1*
X22431Y17210D1*
X22414Y17138D1*
Y17019D1*
X22431Y16947D1*
X22448Y16899D1*
X22481Y16851D1*
X22514Y16827D1*
X22581D1*
X22615Y16851D1*
X22648Y16899D1*
X22665Y16947D1*
X22682Y17019D1*
Y17138D1*
X22665Y17210D1*
X22648Y17258D1*
X22615Y17306D1*
X22581Y17329D1*
X22514D1*
X22565Y16923D2*
X22665Y16779D1*
X22874Y17329D2*
X22824Y17305D1*
X22807Y17257D1*
Y17209D1*
X22824Y17162D1*
X22857Y17137D1*
X22924Y17114D1*
X22974Y17090D1*
X23007Y17042D1*
X23024Y16994D1*
Y16922D1*
X23007Y16875D1*
X22991Y16851D1*
X22941Y16827D1*
X22874D1*
X22824Y16851D1*
X22807Y16875D1*
X22790Y16922D1*
Y16994D1*
X22807Y17042D1*
X22840Y17090D1*
X22890Y17114D1*
X22957Y17137D1*
X22991Y17162D1*
X23007Y17209D1*
Y17257D1*
X22991Y17305D1*
X22941Y17329D1*
X22874D1*
X10164Y13840D2*
X10314D1*
X10365Y13864D1*
X10382Y13888D1*
X10398Y13935D1*
Y13984D1*
X10382Y14031D1*
X10365Y14055D1*
X10314Y14079D1*
X10164D1*
Y13577D1*
X10281Y13840D2*
X10398Y13577D1*
X10540Y14079D2*
X10724D1*
X10624Y13887D1*
X10674D1*
X10707Y13864D1*
X10724Y13840D1*
X10741Y13768D1*
Y13720D1*
X10724Y13649D1*
X10691Y13601D1*
X10640Y13577D1*
X10590D1*
X10540Y13601D1*
X10523Y13625D1*
X10506Y13672D1*
X12164Y14590D2*
X12314D1*
X12365Y14614D1*
X12382Y14638D1*
X12398Y14685D1*
Y14734D1*
X12382Y14781D1*
X12365Y14805D1*
X12314Y14829D1*
X12164D1*
Y14327D1*
X12281Y14590D2*
X12398Y14327D1*
X12674D2*
Y14829D1*
X12506Y14494D1*
X12757D1*
X15164Y14090D2*
X15314D1*
X15365Y14114D1*
X15382Y14138D1*
X15398Y14185D1*
Y14234D1*
X15382Y14281D1*
X15365Y14305D1*
X15314Y14329D1*
X15164D1*
Y13827D1*
X15281Y14090D2*
X15398Y13827D1*
X15707Y14329D2*
X15540D1*
X15523Y14114D1*
X15540Y14137D1*
X15590Y14162D1*
X15640D1*
X15691Y14137D1*
X15724Y14090D1*
X15741Y14018D1*
Y13970D1*
X15724Y13899D1*
X15691Y13851D1*
X15640Y13827D1*
X15590D1*
X15540Y13851D1*
X15523Y13875D1*
X15506Y13922D1*
X17164Y14590D2*
X17314D1*
X17365Y14614D1*
X17382Y14638D1*
X17398Y14685D1*
Y14734D1*
X17382Y14781D1*
X17365Y14805D1*
X17314Y14829D1*
X17164D1*
Y14327D1*
X17281Y14590D2*
X17398Y14327D1*
X17707Y14757D2*
X17691Y14805D1*
X17640Y14829D1*
X17607D1*
X17557Y14805D1*
X17523Y14733D1*
X17506Y14614D1*
Y14494D1*
X17523Y14399D1*
X17557Y14351D1*
X17607Y14327D1*
X17624D1*
X17674Y14351D1*
X17707Y14399D1*
X17724Y14470D1*
Y14494D1*
X17707Y14566D1*
X17674Y14614D1*
X17624Y14637D1*
X17607D1*
X17557Y14614D1*
X17523Y14566D1*
X17506Y14494D1*
X19664Y13840D2*
X19814D1*
X19865Y13864D1*
X19882Y13888D1*
X19898Y13935D1*
Y13984D1*
X19882Y14031D1*
X19865Y14055D1*
X19814Y14079D1*
X19664D1*
Y13577D1*
X19781Y13840D2*
X19898Y13577D1*
X20073D2*
X20241Y14079D1*
X20006D1*
X21664Y14590D2*
X21814D1*
X21865Y14614D1*
X21882Y14638D1*
X21898Y14685D1*
Y14734D1*
X21882Y14781D1*
X21865Y14805D1*
X21814Y14829D1*
X21664D1*
Y14327D1*
X21781Y14590D2*
X21898Y14327D1*
X22090Y14829D2*
X22040Y14805D1*
X22023Y14757D1*
Y14709D1*
X22040Y14662D1*
X22073Y14637D1*
X22140Y14614D1*
X22191Y14590D1*
X22224Y14542D1*
X22240Y14494D1*
Y14422D1*
X22224Y14375D1*
X22207Y14351D1*
X22157Y14327D1*
X22090D1*
X22040Y14351D1*
X22023Y14375D1*
X22006Y14422D1*
Y14494D1*
X22023Y14542D1*
X22057Y14590D1*
X22107Y14614D1*
X22174Y14637D1*
X22207Y14662D1*
X22224Y14709D1*
Y14757D1*
X22207Y14805D1*
X22157Y14829D1*
X22090D1*
X20664Y7079D2*
Y6577D1*
X20781D1*
X20831Y6601D1*
X20865Y6649D1*
X20882Y6697D1*
X20898Y6768D1*
Y6888D1*
X20882Y6960D1*
X20865Y7007D1*
X20831Y7055D1*
X20781Y7079D1*
X20664D1*
X21006Y6983D2*
X21040Y7007D1*
X21090Y7079D1*
Y6577D1*
X21265D2*
X21433Y7079D1*
X21198D1*
X22915Y9710D2*
X22898Y9757D1*
X22865Y9805D1*
X22831Y9829D1*
X22764D1*
X22731Y9805D1*
X22698Y9757D1*
X22680Y9710D1*
X22664Y9638D1*
Y9518D1*
X22680Y9447D1*
X22698Y9399D1*
X22731Y9351D1*
X22764Y9327D1*
X22831D1*
X22865Y9351D1*
X22898Y9399D1*
X22915Y9447D1*
X23023Y9733D2*
X23057Y9757D1*
X23107Y9829D1*
Y9327D1*
X6415Y33960D2*
X6398Y34007D1*
X6365Y34055D1*
X6331Y34079D1*
X6264D1*
X6231Y34055D1*
X6198Y34007D1*
X6180Y33960D1*
X6164Y33888D1*
Y33768D1*
X6180Y33697D1*
X6198Y33649D1*
X6231Y33601D1*
X6264Y33577D1*
X6331D1*
X6365Y33601D1*
X6398Y33649D1*
X6415Y33697D1*
X6540Y33959D2*
Y33983D1*
X6557Y34031D1*
X6573Y34055D1*
X6607Y34079D1*
X6674D1*
X6707Y34055D1*
X6724Y34031D1*
X6741Y33983D1*
Y33935D1*
X6724Y33887D1*
X6691Y33816D1*
X6523Y33577D1*
X6757D1*
X13414Y29079D2*
Y28577D1*
X13531D1*
X13581Y28601D1*
X13615Y28649D1*
X13632Y28697D1*
X13648Y28768D1*
Y28888D1*
X13632Y28960D1*
X13615Y29007D1*
X13581Y29055D1*
X13531Y29079D1*
X13414D1*
X13756Y28983D2*
X13790Y29007D1*
X13840Y29079D1*
Y28577D1*
X9914Y26079D2*
Y25577D1*
X10031D1*
X10081Y25601D1*
X10115Y25649D1*
X10132Y25697D1*
X10148Y25768D1*
Y25888D1*
X10132Y25960D1*
X10115Y26007D1*
X10081Y26055D1*
X10031Y26079D1*
X9914D1*
X10273Y25959D2*
Y25983D1*
X10290Y26031D1*
X10307Y26055D1*
X10340Y26079D1*
X10407D1*
X10441Y26055D1*
X10457Y26031D1*
X10474Y25983D1*
Y25935D1*
X10457Y25887D1*
X10424Y25816D1*
X10256Y25577D1*
X10491D1*
X13414Y23079D2*
Y22577D1*
X13531D1*
X13581Y22601D1*
X13615Y22649D1*
X13632Y22697D1*
X13648Y22768D1*
Y22888D1*
X13632Y22960D1*
X13615Y23007D1*
X13581Y23055D1*
X13531Y23079D1*
X13414D1*
X13790D2*
X13974D1*
X13874Y22887D1*
X13924D1*
X13957Y22864D1*
X13974Y22840D1*
X13991Y22768D1*
Y22720D1*
X13974Y22649D1*
X13941Y22601D1*
X13890Y22577D1*
X13840D1*
X13790Y22601D1*
X13773Y22625D1*
X13756Y22672D1*
X9914Y20329D2*
Y19827D1*
X10031D1*
X10081Y19851D1*
X10115Y19899D1*
X10132Y19947D1*
X10148Y20018D1*
Y20138D1*
X10132Y20210D1*
X10115Y20257D1*
X10081Y20305D1*
X10031Y20329D1*
X9914D1*
X10424Y19827D2*
Y20329D1*
X10256Y19994D1*
X10507D1*
X9914Y29079D2*
Y28577D1*
X10031D1*
X10081Y28601D1*
X10115Y28649D1*
X10132Y28697D1*
X10148Y28768D1*
Y28888D1*
X10132Y28960D1*
X10115Y29007D1*
X10081Y29055D1*
X10031Y29079D1*
X9914D1*
X10457D2*
X10290D1*
X10273Y28864D1*
X10290Y28887D1*
X10340Y28912D1*
X10390D1*
X10441Y28887D1*
X10474Y28840D1*
X10491Y28768D1*
Y28720D1*
X10474Y28649D1*
X10441Y28601D1*
X10390Y28577D1*
X10340D1*
X10290Y28601D1*
X10273Y28625D1*
X10256Y28672D1*
X13414Y26079D2*
Y25577D1*
X13531D1*
X13581Y25601D1*
X13615Y25649D1*
X13632Y25697D1*
X13648Y25768D1*
Y25888D1*
X13632Y25960D1*
X13615Y26007D1*
X13581Y26055D1*
X13531Y26079D1*
X13414D1*
X13957Y26007D2*
X13941Y26055D1*
X13890Y26079D1*
X13857D1*
X13807Y26055D1*
X13773Y25983D1*
X13756Y25864D1*
Y25744D1*
X13773Y25649D1*
X13807Y25601D1*
X13857Y25577D1*
X13874D1*
X13924Y25601D1*
X13957Y25649D1*
X13974Y25720D1*
Y25744D1*
X13957Y25816D1*
X13924Y25864D1*
X13874Y25887D1*
X13857D1*
X13807Y25864D1*
X13773Y25816D1*
X13756Y25744D1*
X9914Y23079D2*
Y22577D1*
X10031D1*
X10081Y22601D1*
X10115Y22649D1*
X10132Y22697D1*
X10148Y22768D1*
Y22888D1*
X10132Y22960D1*
X10115Y23007D1*
X10081Y23055D1*
X10031Y23079D1*
X9914D1*
X10323Y22577D2*
X10491Y23079D1*
X10256D1*
X13414Y20329D2*
Y19827D1*
X13531D1*
X13581Y19851D1*
X13615Y19899D1*
X13632Y19947D1*
X13648Y20018D1*
Y20138D1*
X13632Y20210D1*
X13615Y20257D1*
X13581Y20305D1*
X13531Y20329D1*
X13414D1*
X13840D2*
X13790Y20305D1*
X13773Y20257D1*
Y20209D1*
X13790Y20162D1*
X13823Y20137D1*
X13890Y20114D1*
X13941Y20090D1*
X13974Y20042D1*
X13990Y19994D1*
Y19922D1*
X13974Y19875D1*
X13957Y19851D1*
X13907Y19827D1*
X13840D1*
X13790Y19851D1*
X13773Y19875D1*
X13756Y19922D1*
Y19994D1*
X13773Y20042D1*
X13807Y20090D1*
X13857Y20114D1*
X13924Y20137D1*
X13957Y20162D1*
X13974Y20209D1*
Y20257D1*
X13957Y20305D1*
X13907Y20329D1*
X13840D1*
X20414Y29079D2*
Y28577D1*
X20531D1*
X20581Y28601D1*
X20615Y28649D1*
X20632Y28697D1*
X20648Y28768D1*
Y28888D1*
X20632Y28960D1*
X20615Y29007D1*
X20581Y29055D1*
X20531Y29079D1*
X20414D1*
X20974Y28912D2*
X20957Y28840D1*
X20924Y28792D1*
X20874Y28768D1*
X20857D1*
X20807Y28792D1*
X20773Y28840D1*
X20756Y28912D1*
Y28935D1*
X20773Y29007D1*
X20807Y29055D1*
X20857Y29079D1*
X20874D1*
X20924Y29055D1*
X20957Y29007D1*
X20974Y28912D1*
Y28792D1*
X20957Y28672D1*
X20924Y28601D1*
X20874Y28577D1*
X20840D1*
X20790Y28601D1*
X20773Y28649D1*
X16914Y26079D2*
Y25577D1*
X17031D1*
X17081Y25601D1*
X17115Y25649D1*
X17132Y25697D1*
X17148Y25768D1*
Y25888D1*
X17132Y25960D1*
X17115Y26007D1*
X17081Y26055D1*
X17031Y26079D1*
X16914D1*
X17256Y25983D2*
X17290Y26007D1*
X17340Y26079D1*
Y25577D1*
X17549Y26079D2*
X17499Y26055D1*
X17465Y25983D1*
X17448Y25864D1*
Y25792D1*
X17465Y25672D1*
X17499Y25601D1*
X17549Y25577D1*
X17582D1*
X17633Y25601D1*
X17666Y25672D1*
X17683Y25792D1*
Y25864D1*
X17666Y25983D1*
X17633Y26055D1*
X17582Y26079D1*
X17549D1*
X17666Y25983D2*
X17465Y25672D1*
X20414Y23079D2*
Y22577D1*
X20531D1*
X20581Y22601D1*
X20615Y22649D1*
X20632Y22697D1*
X20648Y22768D1*
Y22888D1*
X20632Y22960D1*
X20615Y23007D1*
X20581Y23055D1*
X20531Y23079D1*
X20414D1*
X20756Y22983D2*
X20790Y23007D1*
X20840Y23079D1*
Y22577D1*
X20948Y22983D2*
X20982Y23007D1*
X21032Y23079D1*
Y22577D1*
X16914Y20329D2*
Y19827D1*
X17031D1*
X17081Y19851D1*
X17115Y19899D1*
X17132Y19947D1*
X17148Y20018D1*
Y20138D1*
X17132Y20210D1*
X17115Y20257D1*
X17081Y20305D1*
X17031Y20329D1*
X16914D1*
X17256Y20233D2*
X17290Y20257D1*
X17340Y20329D1*
Y19827D1*
X17465Y20209D2*
Y20233D1*
X17482Y20281D1*
X17499Y20305D1*
X17532Y20329D1*
X17599D1*
X17633Y20305D1*
X17649Y20281D1*
X17666Y20233D1*
Y20185D1*
X17649Y20137D1*
X17616Y20066D1*
X17448Y19827D1*
X17683D1*
X16914Y29079D2*
Y28577D1*
X17031D1*
X17081Y28601D1*
X17115Y28649D1*
X17132Y28697D1*
X17148Y28768D1*
Y28888D1*
X17132Y28960D1*
X17115Y29007D1*
X17081Y29055D1*
X17031Y29079D1*
X16914D1*
X17256Y28983D2*
X17290Y29007D1*
X17340Y29079D1*
Y28577D1*
X17482Y29079D2*
X17666D1*
X17566Y28887D1*
X17616D1*
X17649Y28864D1*
X17666Y28840D1*
X17683Y28768D1*
Y28720D1*
X17666Y28649D1*
X17633Y28601D1*
X17582Y28577D1*
X17532D1*
X17482Y28601D1*
X17465Y28625D1*
X17448Y28672D1*
X20414Y26079D2*
Y25577D1*
X20531D1*
X20581Y25601D1*
X20615Y25649D1*
X20632Y25697D1*
X20648Y25768D1*
Y25888D1*
X20632Y25960D1*
X20615Y26007D1*
X20581Y26055D1*
X20531Y26079D1*
X20414D1*
X20756Y25983D2*
X20790Y26007D1*
X20840Y26079D1*
Y25577D1*
X21116D2*
Y26079D1*
X20948Y25744D1*
X21199D1*
X16914Y23079D2*
Y22577D1*
X17031D1*
X17081Y22601D1*
X17115Y22649D1*
X17132Y22697D1*
X17148Y22768D1*
Y22888D1*
X17132Y22960D1*
X17115Y23007D1*
X17081Y23055D1*
X17031Y23079D1*
X16914D1*
X17256Y22983D2*
X17290Y23007D1*
X17340Y23079D1*
Y22577D1*
X17649Y23079D2*
X17482D1*
X17465Y22864D1*
X17482Y22887D1*
X17532Y22912D1*
X17582D1*
X17633Y22887D1*
X17666Y22840D1*
X17683Y22768D1*
Y22720D1*
X17666Y22649D1*
X17633Y22601D1*
X17582Y22577D1*
X17532D1*
X17482Y22601D1*
X17465Y22625D1*
X17448Y22672D1*
X20414Y20329D2*
Y19827D1*
X20531D1*
X20581Y19851D1*
X20615Y19899D1*
X20632Y19947D1*
X20648Y20018D1*
Y20138D1*
X20632Y20210D1*
X20615Y20257D1*
X20581Y20305D1*
X20531Y20329D1*
X20414D1*
X20756Y20233D2*
X20790Y20257D1*
X20840Y20329D1*
Y19827D1*
X21149Y20257D2*
X21133Y20305D1*
X21082Y20329D1*
X21049D1*
X20999Y20305D1*
X20965Y20233D1*
X20948Y20114D1*
Y19994D1*
X20965Y19899D1*
X20999Y19851D1*
X21049Y19827D1*
X21066D1*
X21116Y19851D1*
X21149Y19899D1*
X21166Y19970D1*
Y19994D1*
X21149Y20066D1*
X21116Y20114D1*
X21066Y20137D1*
X21049D1*
X20999Y20114D1*
X20965Y20066D1*
X20948Y19994D1*
X8148Y33757D2*
X8115Y33805D1*
X8065Y33829D1*
X7998D1*
X7948Y33805D1*
X7914Y33757D1*
Y33710D1*
X7931Y33662D1*
X7948Y33638D1*
X7981Y33614D1*
X8081Y33566D1*
X8115Y33542D1*
X8132Y33518D1*
X8148Y33470D1*
Y33399D1*
X8115Y33351D1*
X8065Y33327D1*
X7998D1*
X7948Y33351D1*
X7914Y33399D1*
X8256Y33733D2*
X8290Y33757D1*
X8340Y33829D1*
Y33327D1*
X11648Y33757D2*
X11615Y33805D1*
X11565Y33829D1*
X11498D1*
X11448Y33805D1*
X11414Y33757D1*
Y33710D1*
X11431Y33662D1*
X11448Y33638D1*
X11481Y33614D1*
X11581Y33566D1*
X11615Y33542D1*
X11632Y33518D1*
X11648Y33470D1*
Y33399D1*
X11615Y33351D1*
X11565Y33327D1*
X11498D1*
X11448Y33351D1*
X11414Y33399D1*
X11773Y33709D2*
Y33733D1*
X11790Y33781D1*
X11807Y33805D1*
X11840Y33829D1*
X11907D1*
X11941Y33805D1*
X11957Y33781D1*
X11974Y33733D1*
Y33685D1*
X11957Y33637D1*
X11924Y33566D1*
X11756Y33327D1*
X11991D1*
X15148Y33757D2*
X15115Y33805D1*
X15065Y33829D1*
X14998D1*
X14948Y33805D1*
X14914Y33757D1*
Y33710D1*
X14931Y33662D1*
X14948Y33638D1*
X14981Y33614D1*
X15081Y33566D1*
X15115Y33542D1*
X15132Y33518D1*
X15148Y33470D1*
Y33399D1*
X15115Y33351D1*
X15065Y33327D1*
X14998D1*
X14948Y33351D1*
X14914Y33399D1*
X15290Y33829D2*
X15474D1*
X15374Y33637D1*
X15424D1*
X15457Y33614D1*
X15474Y33590D1*
X15491Y33518D1*
Y33470D1*
X15474Y33399D1*
X15441Y33351D1*
X15390Y33327D1*
X15340D1*
X15290Y33351D1*
X15273Y33375D1*
X15256Y33422D1*
X18648Y33757D2*
X18615Y33805D1*
X18565Y33829D1*
X18498D1*
X18448Y33805D1*
X18414Y33757D1*
Y33710D1*
X18431Y33662D1*
X18448Y33638D1*
X18481Y33614D1*
X18581Y33566D1*
X18615Y33542D1*
X18632Y33518D1*
X18648Y33470D1*
Y33399D1*
X18615Y33351D1*
X18565Y33327D1*
X18498D1*
X18448Y33351D1*
X18414Y33399D1*
X18924Y33327D2*
Y33829D1*
X18756Y33494D1*
X19007D1*
X4831Y31079D2*
Y30697D1*
X4815Y30625D1*
X4798Y30601D1*
X4764Y30577D1*
X4731D1*
X4698Y30601D1*
X4681Y30625D1*
X4664Y30697D1*
Y30744D1*
X4939Y30983D2*
X4973Y31007D1*
X5023Y31079D1*
Y30577D1*
X22831Y31079D2*
Y30697D1*
X22815Y30625D1*
X22798Y30601D1*
X22764Y30577D1*
X22731D1*
X22698Y30601D1*
X22681Y30625D1*
X22664Y30697D1*
Y30744D1*
X22956Y30959D2*
Y30983D1*
X22973Y31031D1*
X22990Y31055D1*
X23023Y31079D1*
X23090D1*
X23124Y31055D1*
X23140Y31031D1*
X23157Y30983D1*
Y30935D1*
X23140Y30887D1*
X23107Y30816D1*
X22939Y30577D1*
X23174D1*
X14237Y4846D2*
Y4464D1*
X14220Y4392D1*
X14203Y4368D1*
X14170Y4344D1*
X14136D1*
X14103Y4368D1*
X14086Y4392D1*
X14069Y4464D1*
Y4512D1*
X14379Y4846D2*
X14562D1*
X14462Y4655D1*
X14512D1*
X14546Y4631D1*
X14562Y4607D1*
X14579Y4535D1*
Y4488D1*
X14562Y4416D1*
X14529Y4368D1*
X14479Y4344D1*
X14429D1*
X14379Y4368D1*
X14362Y4392D1*
X14345Y4440D1*
X7508Y9562D2*
Y9059D1*
X7659D1*
X7710Y9084D1*
X7726Y9108D1*
X7743Y9155D1*
Y9227D1*
X7726Y9275D1*
X7710Y9299D1*
X7659Y9323D1*
X7710Y9347D1*
X7726Y9371D1*
X7743Y9418D1*
Y9466D1*
X7726Y9514D1*
X7710Y9538D1*
X7659Y9562D1*
X7508D1*
Y9323D2*
X7659D1*
X7851Y9466D2*
X7885Y9490D1*
X7935Y9561D1*
Y9059D1*
X15752Y32193D2*
Y31690D1*
X15869D1*
X15919Y31715D1*
X15953Y31762D1*
X15969Y31810D1*
X15986Y31881D1*
Y32001D1*
X15969Y32073D1*
X15953Y32121D1*
X15919Y32169D1*
X15869Y32193D1*
X15752D1*
X16094Y32096D2*
X16128Y32121D1*
X16178Y32192D1*
Y31690D1*
X16504Y32025D2*
X16487Y31953D1*
X16454Y31905D1*
X16403Y31881D1*
X16387D1*
X16336Y31905D1*
X16303Y31953D1*
X16286Y32025D1*
Y32049D1*
X16303Y32121D1*
X16336Y32168D1*
X16387Y32192D1*
X16403D1*
X16454Y32168D1*
X16487Y32121D1*
X16504Y32025D1*
Y31905D1*
X16487Y31786D1*
X16454Y31714D1*
X16403Y31690D1*
X16370D1*
X16320Y31714D1*
X16303Y31762D1*
X21414Y31840D2*
X21564D1*
X21615Y31864D1*
X21632Y31888D1*
X21648Y31935D1*
Y31984D1*
X21632Y32031D1*
X21615Y32055D1*
X21564Y32079D1*
X21414D1*
Y31577D1*
X21531Y31840D2*
X21648Y31577D1*
X21756Y31983D2*
X21790Y32007D1*
X21840Y32079D1*
Y31577D1*
X22049Y32079D2*
X21999Y32055D1*
X21965Y31983D1*
X21948Y31864D1*
Y31792D1*
X21965Y31672D1*
X21999Y31601D1*
X22049Y31577D1*
X22082D1*
X22133Y31601D1*
X22166Y31672D1*
X22183Y31792D1*
Y31864D1*
X22166Y31983D1*
X22133Y32055D1*
X22082Y32079D1*
X22049D1*
X22166Y31983D2*
X21965Y31672D1*
X5914Y8840D2*
X6064D1*
X6115Y8864D1*
X6132Y8888D1*
X6148Y8935D1*
Y8984D1*
X6132Y9031D1*
X6115Y9055D1*
X6064Y9079D1*
X5914D1*
Y8577D1*
X6031Y8840D2*
X6148Y8577D1*
X6256Y8983D2*
X6290Y9007D1*
X6340Y9079D1*
Y8577D1*
X6448Y8983D2*
X6482Y9007D1*
X6532Y9079D1*
Y8577D1*
X9357Y10661D2*
X9507D1*
X9558Y10686D1*
X9575Y10709D1*
X9591Y10757D1*
Y10805D1*
X9575Y10853D1*
X9558Y10877D1*
X9507Y10901D1*
X9357D1*
Y10398D1*
X9474Y10661D2*
X9591Y10398D1*
X9699Y10804D2*
X9733Y10829D1*
X9783Y10900D1*
Y10398D1*
X9908Y10781D2*
Y10804D1*
X9925Y10853D1*
X9942Y10876D1*
X9975Y10900D1*
X10042D1*
X10075Y10876D1*
X10092Y10853D1*
X10109Y10804D1*
Y10757D1*
X10092Y10709D1*
X10059Y10638D1*
X9891Y10398D1*
X10126D1*
X14914Y10329D2*
Y9827D1*
X15031D1*
X15081Y9851D1*
X15115Y9899D1*
X15132Y9947D1*
X15148Y10018D1*
Y10138D1*
X15132Y10210D1*
X15115Y10257D1*
X15081Y10305D1*
X15031Y10329D1*
X14914D1*
X15273Y10209D2*
Y10233D1*
X15290Y10281D1*
X15307Y10305D1*
X15340Y10329D1*
X15407D1*
X15441Y10305D1*
X15457Y10281D1*
X15474Y10233D1*
Y10185D1*
X15457Y10137D1*
X15424Y10066D1*
X15256Y9827D1*
X15491D1*
X15699Y10329D2*
X15649Y10305D1*
X15616Y10233D1*
X15599Y10114D1*
Y10042D1*
X15616Y9922D1*
X15649Y9851D1*
X15699Y9827D1*
X15733D1*
X15783Y9851D1*
X15816Y9922D1*
X15833Y10042D1*
Y10114D1*
X15816Y10233D1*
X15783Y10305D1*
X15733Y10329D1*
X15699D1*
X15816Y10233D2*
X15616Y9922D1*
X16521Y9801D2*
Y9442D1*
X16538Y9370D1*
X16571Y9323D1*
X16622Y9298D1*
X16655D1*
X16705Y9323D1*
X16739Y9370D1*
X16756Y9442D1*
Y9801D1*
X16864Y9704D2*
X16897Y9729D1*
X16948Y9800D1*
Y9298D1*
M02*
